<svg version="1.1" xmlns="http://www.w3.org/2000/svg" xmlns:xlink="http://www.w3.org/1999/xlink" width="851.466796875" height="99"><defs/><g><text fill="#eeeeee" stroke="none" font-family="Arial" font-size="24px" font-style="normal" font-weight="normal" text-decoration="none" x="0" y="0">UNREGISTERED</text><text fill="#eeeeee" stroke="none" font-family="Arial" font-size="24px" font-style="normal" font-weight="normal" text-decoration="none" x="0" y="30">UNREGISTERED</text><text fill="#eeeeee" stroke="none" font-family="Arial" font-size="24px" font-style="normal" font-weight="normal" text-decoration="none" x="0" y="60">UNREGISTERED</text><text fill="#eeeeee" stroke="none" font-family="Arial" font-size="24px" font-style="normal" font-weight="normal" text-decoration="none" x="0" y="90">UNREGISTERED</text><text fill="#eeeeee" stroke="none" font-family="Arial" font-size="24px" font-style="normal" font-weight="normal" text-decoration="none" x="200" y="0">UNREGISTERED</text><text fill="#eeeeee" stroke="none" font-family="Arial" font-size="24px" font-style="normal" font-weight="normal" text-decoration="none" x="200" y="30">UNREGISTERED</text><text fill="#eeeeee" stroke="none" font-family="Arial" font-size="24px" font-style="normal" font-weight="normal" text-decoration="none" x="200" y="60">UNREGISTERED</text><text fill="#eeeeee" stroke="none" font-family="Arial" font-size="24px" font-style="normal" font-weight="normal" text-decoration="none" x="200" y="90">UNREGISTERED</text><text fill="#eeeeee" stroke="none" font-family="Arial" font-size="24px" font-style="normal" font-weight="normal" text-decoration="none" x="400" y="0">UNREGISTERED</text><text fill="#eeeeee" stroke="none" font-family="Arial" font-size="24px" font-style="normal" font-weight="normal" text-decoration="none" x="400" y="30">UNREGISTERED</text><text fill="#eeeeee" stroke="none" font-family="Arial" font-size="24px" font-style="normal" font-weight="normal" text-decoration="none" x="400" y="60">UNREGISTERED</text><text fill="#eeeeee" stroke="none" font-family="Arial" font-size="24px" font-style="normal" font-weight="normal" text-decoration="none" x="400" y="90">UNREGISTERED</text><text fill="#eeeeee" stroke="none" font-family="Arial" font-size="24px" font-style="normal" font-weight="normal" text-decoration="none" x="600" y="0">UNREGISTERED</text><text fill="#eeeeee" stroke="none" font-family="Arial" font-size="24px" font-style="normal" font-weight="normal" text-decoration="none" x="600" y="30">UNREGISTERED</text><text fill="#eeeeee" stroke="none" font-family="Arial" font-size="24px" font-style="normal" font-weight="normal" text-decoration="none" x="600" y="60">UNREGISTERED</text><text fill="#eeeeee" stroke="none" font-family="Arial" font-size="24px" font-style="normal" font-weight="normal" text-decoration="none" x="600" y="90">UNREGISTERED</text><text fill="#eeeeee" stroke="none" font-family="Arial" font-size="24px" font-style="normal" font-weight="normal" text-decoration="none" x="800" y="0">UNREGISTERED</text><text fill="#eeeeee" stroke="none" font-family="Arial" font-size="24px" font-style="normal" font-weight="normal" text-decoration="none" x="800" y="30">UNREGISTERED</text><text fill="#eeeeee" stroke="none" font-family="Arial" font-size="24px" font-style="normal" font-weight="normal" text-decoration="none" x="800" y="60">UNREGISTERED</text><text fill="#eeeeee" stroke="none" font-family="Arial" font-size="24px" font-style="normal" font-weight="normal" text-decoration="none" x="800" y="90">UNREGISTERED</text><g transform="translate(-10,-10) scale(1,1)"><rect fill="#C0C0C0" stroke="none" x="108.99267578125" y="27" width="60.9873046875" height="24" opacity="0.2"/></g><g transform="translate(-10,-10) scale(1,1)"><rect fill="#ffffff" stroke="none" x="101.99267578125" y="20" width="60.9873046875" height="24"/></g><g transform="translate(-10,-10) scale(1,1)"><path fill="none" stroke="#000000" d="M 101.99267578125 20 L 162.97998046875 20 L 162.97998046875 44 L 101.99267578125 44 L 101.99267578125 20 Z Z" stroke-miterlimit="10"/></g><g transform="translate(-10,-10) scale(1,1)"><g><path fill="none" stroke="none"/><text fill="#000000" stroke="none" font-family="Arial" font-size="13px" font-style="italic" font-weight="bold" text-decoration="none" x="109.358642578125" y="39.5">Building</text></g></g><g transform="translate(-10,-10) scale(1,1)"><rect fill="#C0C0C0" stroke="none" x="200.97998046875" y="27" width="114.447265625" height="24" opacity="0.2"/></g><g transform="translate(-10,-10) scale(1,1)"><rect fill="#ffffff" stroke="none" x="193.97998046875" y="20" width="114.447265625" height="24"/></g><g transform="translate(-10,-10) scale(1,1)"><path fill="none" stroke="#000000" d="M 193.97998046875 20 L 308.42724609375 20 L 308.42724609375 44 L 193.97998046875 44 L 193.97998046875 20 Z Z" stroke-miterlimit="10"/></g><g transform="translate(-10,-10) scale(1,1)"><g><path fill="none" stroke="none"/><text fill="#000000" stroke="none" font-family="Arial" font-size="13px" font-style="normal" font-weight="bold" text-decoration="none" x="202.421875" y="39.5">BuildingManager</text></g></g><g transform="translate(-10,-10) scale(1,1)"><rect fill="#C0C0C0" stroke="none" x="27" y="82" width="224.97265625" height="24" opacity="0.2"/></g><g transform="translate(-10,-10) scale(1,1)"><rect fill="#ffffff" stroke="none" x="20" y="75" width="224.97265625" height="24"/></g><g transform="translate(-10,-10) scale(1,1)"><path fill="none" stroke="#000000" d="M 20 75 L 244.97265625 75 L 244.97265625 99 L 20 99 L 20 75 Z Z" stroke-miterlimit="10"/></g><g transform="translate(-10,-10) scale(1,1)"><g><path fill="none" stroke="none"/><text fill="#000000" stroke="none" font-family="Arial" font-size="13px" font-style="normal" font-weight="bold" text-decoration="none" x="32.75830078125" y="94.5">BuildingPlacementIndicatorUpdate</text></g></g><g transform="translate(-10,-10) scale(1,1)"><rect fill="#C0C0C0" stroke="none" x="346.42724609375" y="27" width="170.078125" height="24" opacity="0.2"/></g><g transform="translate(-10,-10) scale(1,1)"><rect fill="#ffffff" stroke="none" x="339.42724609375" y="20" width="170.078125" height="24"/></g><g transform="translate(-10,-10) scale(1,1)"><path fill="none" stroke="#000000" d="M 339.42724609375 20 L 509.50537109375 20 L 509.50537109375 44 L 339.42724609375 44 L 339.42724609375 20 Z Z" stroke-miterlimit="10"/></g><g transform="translate(-10,-10) scale(1,1)"><g><path fill="none" stroke="none"/><text fill="#000000" stroke="none" font-family="Arial" font-size="13px" font-style="normal" font-weight="bold" text-decoration="none" x="349.668701171875" y="39.5">BuildingPlacementUpdate</text></g></g><g transform="translate(-10,-10) scale(1,1)"><rect fill="#C0C0C0" stroke="none" x="547.50537109375" y="27" width="130.8115234375" height="24" opacity="0.2"/></g><g transform="translate(-10,-10) scale(1,1)"><rect fill="#ffffff" stroke="none" x="540.50537109375" y="20" width="130.8115234375" height="24"/></g><g transform="translate(-10,-10) scale(1,1)"><path fill="none" stroke="#000000" d="M 540.50537109375 20 L 671.31689453125 20 L 671.31689453125 44 L 540.50537109375 44 L 540.50537109375 20 Z Z" stroke-miterlimit="10"/></g><g transform="translate(-10,-10) scale(1,1)"><g><path fill="none" stroke="none"/><text fill="#000000" stroke="none" font-family="Arial" font-size="13px" font-style="normal" font-weight="bold" text-decoration="none" x="550.016845703125" y="39.5">BuildingPopupView</text></g></g><g transform="translate(-10,-10) scale(1,1)"><rect fill="#C0C0C0" stroke="none" x="709.31689453125" y="27" width="149.14990234375" height="24" opacity="0.2"/></g><g transform="translate(-10,-10) scale(1,1)"><rect fill="#ffffff" stroke="none" x="702.31689453125" y="20" width="149.14990234375" height="24"/></g><g transform="translate(-10,-10) scale(1,1)"><path fill="none" stroke="#000000" d="M 702.31689453125 20 L 851.466796875 20 L 851.466796875 44 L 702.31689453125 44 L 702.31689453125 20 Z Z" stroke-miterlimit="10"/></g><g transform="translate(-10,-10) scale(1,1)"><g><path fill="none" stroke="none"/><text fill="#000000" stroke="none" font-family="Arial" font-size="13px" font-style="normal" font-weight="bold" text-decoration="none" x="709.689208984375" y="39.5">MeasureModeManager</text></g></g><g transform="translate(-10,-10) scale(1,1)"><path fill="none" stroke="#000000" d="M 132 74 Q 133 60 132 45" stroke-miterlimit="10"/></g><g transform="translate(-10,-10) scale(1,1)"><path fill="none" stroke="#000000" d="M 136.8762054144906 54.86015318114747 L 132 45 L 128.47581673711738 55.42017909297235" stroke-miterlimit="10"/></g><g transform="translate(-10,-10) scale(1,1)"><g><path fill="none" stroke="none"/><text fill="#000000" stroke="none" font-family="Arial" font-size="13px" font-style="normal" font-weight="normal" text-decoration="none" x="61.5" y="77.5">-referencedBuilding</text></g></g></g></svg>