<svg version="1.1" xmlns="http://www.w3.org/2000/svg" xmlns:xlink="http://www.w3.org/1999/xlink" width="1040.7103271484375" height="199"><defs/><g><text fill="#eeeeee" stroke="none" font-family="Arial" font-size="24px" font-style="normal" font-weight="normal" text-decoration="none" x="0" y="0">UNREGISTERED</text><text fill="#eeeeee" stroke="none" font-family="Arial" font-size="24px" font-style="normal" font-weight="normal" text-decoration="none" x="0" y="30">UNREGISTERED</text><text fill="#eeeeee" stroke="none" font-family="Arial" font-size="24px" font-style="normal" font-weight="normal" text-decoration="none" x="0" y="60">UNREGISTERED</text><text fill="#eeeeee" stroke="none" font-family="Arial" font-size="24px" font-style="normal" font-weight="normal" text-decoration="none" x="0" y="90">UNREGISTERED</text><text fill="#eeeeee" stroke="none" font-family="Arial" font-size="24px" font-style="normal" font-weight="normal" text-decoration="none" x="0" y="120">UNREGISTERED</text><text fill="#eeeeee" stroke="none" font-family="Arial" font-size="24px" font-style="normal" font-weight="normal" text-decoration="none" x="0" y="150">UNREGISTERED</text><text fill="#eeeeee" stroke="none" font-family="Arial" font-size="24px" font-style="normal" font-weight="normal" text-decoration="none" x="0" y="180">UNREGISTERED</text><text fill="#eeeeee" stroke="none" font-family="Arial" font-size="24px" font-style="normal" font-weight="normal" text-decoration="none" x="200" y="0">UNREGISTERED</text><text fill="#eeeeee" stroke="none" font-family="Arial" font-size="24px" font-style="normal" font-weight="normal" text-decoration="none" x="200" y="30">UNREGISTERED</text><text fill="#eeeeee" stroke="none" font-family="Arial" font-size="24px" font-style="normal" font-weight="normal" text-decoration="none" x="200" y="60">UNREGISTERED</text><text fill="#eeeeee" stroke="none" font-family="Arial" font-size="24px" font-style="normal" font-weight="normal" text-decoration="none" x="200" y="90">UNREGISTERED</text><text fill="#eeeeee" stroke="none" font-family="Arial" font-size="24px" font-style="normal" font-weight="normal" text-decoration="none" x="200" y="120">UNREGISTERED</text><text fill="#eeeeee" stroke="none" font-family="Arial" font-size="24px" font-style="normal" font-weight="normal" text-decoration="none" x="200" y="150">UNREGISTERED</text><text fill="#eeeeee" stroke="none" font-family="Arial" font-size="24px" font-style="normal" font-weight="normal" text-decoration="none" x="200" y="180">UNREGISTERED</text><text fill="#eeeeee" stroke="none" font-family="Arial" font-size="24px" font-style="normal" font-weight="normal" text-decoration="none" x="400" y="0">UNREGISTERED</text><text fill="#eeeeee" stroke="none" font-family="Arial" font-size="24px" font-style="normal" font-weight="normal" text-decoration="none" x="400" y="30">UNREGISTERED</text><text fill="#eeeeee" stroke="none" font-family="Arial" font-size="24px" font-style="normal" font-weight="normal" text-decoration="none" x="400" y="60">UNREGISTERED</text><text fill="#eeeeee" stroke="none" font-family="Arial" font-size="24px" font-style="normal" font-weight="normal" text-decoration="none" x="400" y="90">UNREGISTERED</text><text fill="#eeeeee" stroke="none" font-family="Arial" font-size="24px" font-style="normal" font-weight="normal" text-decoration="none" x="400" y="120">UNREGISTERED</text><text fill="#eeeeee" stroke="none" font-family="Arial" font-size="24px" font-style="normal" font-weight="normal" text-decoration="none" x="400" y="150">UNREGISTERED</text><text fill="#eeeeee" stroke="none" font-family="Arial" font-size="24px" font-style="normal" font-weight="normal" text-decoration="none" x="400" y="180">UNREGISTERED</text><text fill="#eeeeee" stroke="none" font-family="Arial" font-size="24px" font-style="normal" font-weight="normal" text-decoration="none" x="600" y="0">UNREGISTERED</text><text fill="#eeeeee" stroke="none" font-family="Arial" font-size="24px" font-style="normal" font-weight="normal" text-decoration="none" x="600" y="30">UNREGISTERED</text><text fill="#eeeeee" stroke="none" font-family="Arial" font-size="24px" font-style="normal" font-weight="normal" text-decoration="none" x="600" y="60">UNREGISTERED</text><text fill="#eeeeee" stroke="none" font-family="Arial" font-size="24px" font-style="normal" font-weight="normal" text-decoration="none" x="600" y="90">UNREGISTERED</text><text fill="#eeeeee" stroke="none" font-family="Arial" font-size="24px" font-style="normal" font-weight="normal" text-decoration="none" x="600" y="120">UNREGISTERED</text><text fill="#eeeeee" stroke="none" font-family="Arial" font-size="24px" font-style="normal" font-weight="normal" text-decoration="none" x="600" y="150">UNREGISTERED</text><text fill="#eeeeee" stroke="none" font-family="Arial" font-size="24px" font-style="normal" font-weight="normal" text-decoration="none" x="600" y="180">UNREGISTERED</text><text fill="#eeeeee" stroke="none" font-family="Arial" font-size="24px" font-style="normal" font-weight="normal" text-decoration="none" x="800" y="0">UNREGISTERED</text><text fill="#eeeeee" stroke="none" font-family="Arial" font-size="24px" font-style="normal" font-weight="normal" text-decoration="none" x="800" y="30">UNREGISTERED</text><text fill="#eeeeee" stroke="none" font-family="Arial" font-size="24px" font-style="normal" font-weight="normal" text-decoration="none" x="800" y="60">UNREGISTERED</text><text fill="#eeeeee" stroke="none" font-family="Arial" font-size="24px" font-style="normal" font-weight="normal" text-decoration="none" x="800" y="90">UNREGISTERED</text><text fill="#eeeeee" stroke="none" font-family="Arial" font-size="24px" font-style="normal" font-weight="normal" text-decoration="none" x="800" y="120">UNREGISTERED</text><text fill="#eeeeee" stroke="none" font-family="Arial" font-size="24px" font-style="normal" font-weight="normal" text-decoration="none" x="800" y="150">UNREGISTERED</text><text fill="#eeeeee" stroke="none" font-family="Arial" font-size="24px" font-style="normal" font-weight="normal" text-decoration="none" x="800" y="180">UNREGISTERED</text><text fill="#eeeeee" stroke="none" font-family="Arial" font-size="24px" font-style="normal" font-weight="normal" text-decoration="none" x="1000" y="0">UNREGISTERED</text><text fill="#eeeeee" stroke="none" font-family="Arial" font-size="24px" font-style="normal" font-weight="normal" text-decoration="none" x="1000" y="30">UNREGISTERED</text><text fill="#eeeeee" stroke="none" font-family="Arial" font-size="24px" font-style="normal" font-weight="normal" text-decoration="none" x="1000" y="60">UNREGISTERED</text><text fill="#eeeeee" stroke="none" font-family="Arial" font-size="24px" font-style="normal" font-weight="normal" text-decoration="none" x="1000" y="90">UNREGISTERED</text><text fill="#eeeeee" stroke="none" font-family="Arial" font-size="24px" font-style="normal" font-weight="normal" text-decoration="none" x="1000" y="120">UNREGISTERED</text><text fill="#eeeeee" stroke="none" font-family="Arial" font-size="24px" font-style="normal" font-weight="normal" text-decoration="none" x="1000" y="150">UNREGISTERED</text><text fill="#eeeeee" stroke="none" font-family="Arial" font-size="24px" font-style="normal" font-weight="normal" text-decoration="none" x="1000" y="180">UNREGISTERED</text><g transform="translate(-10,-10) scale(1,1)"><rect fill="#C0C0C0" stroke="none" x="58.2315673828125" y="27" width="23.828710937500006" height="15" opacity="0.2"/></g><g transform="translate(-10,-10) scale(1,1)"><rect fill="#C0C0C0" stroke="none" x="58.2315673828125" y="41" width="59.57177734375" height="25" opacity="0.2"/></g><g transform="translate(-10,-10) scale(1,1)"><rect fill="#ffffff" stroke="none" x="51.2315673828125" y="35" width="59.57177734375" height="24"/></g><g transform="translate(-10,-10) scale(1,1)"><path fill="none" stroke="#000000" d="M 51.2315673828125 35 L 110.8033447265625 35 L 110.8033447265625 59 L 51.2315673828125 59 L 51.2315673828125 35 Z Z" stroke-miterlimit="10"/></g><g transform="translate(-10,-10) scale(1,1)"><rect fill="#ffffff" stroke="none" x="51.2315673828125" y="20" width="23.828710937500006" height="15"/></g><g transform="translate(-10,-10) scale(1,1)"><path fill="none" stroke="#000000" d="M 51.2315673828125 20 L 75.0602783203125 20 L 75.0602783203125 35 L 51.2315673828125 35 L 51.2315673828125 20 Z Z" stroke-miterlimit="10"/></g><g transform="translate(-10,-10) scale(1,1)"><rect fill="#ffffff" stroke="none" x="51.2315673828125" y="34" width="59.57177734375" height="25"/></g><g transform="translate(-10,-10) scale(1,1)"><path fill="none" stroke="#000000" d="M 51.2315673828125 34 L 110.8033447265625 34 L 110.8033447265625 59 L 51.2315673828125 59 L 51.2315673828125 34 Z Z" stroke-miterlimit="10"/></g><g transform="translate(-10,-10) scale(1,1)"><g><path fill="none" stroke="none"/><text fill="#000000" stroke="none" font-family="Arial" font-size="13px" font-style="normal" font-weight="bold" text-decoration="none" x="57.1756591796875" y="54.5">Rewired</text></g></g><g transform="translate(-10,-10) scale(1,1)"><rect fill="#C0C0C0" stroke="none" x="148.8033447265625" y="27" width="27.28691406249999" height="15" opacity="0.2"/></g><g transform="translate(-10,-10) scale(1,1)"><rect fill="#C0C0C0" stroke="none" x="148.8033447265625" y="41" width="68.21728515625" height="25" opacity="0.2"/></g><g transform="translate(-10,-10) scale(1,1)"><rect fill="#ffffff" stroke="none" x="141.8033447265625" y="35" width="68.21728515625" height="24"/></g><g transform="translate(-10,-10) scale(1,1)"><path fill="none" stroke="#000000" d="M 141.8033447265625 35 L 210.0206298828125 35 L 210.0206298828125 59 L 141.8033447265625 59 L 141.8033447265625 35 Z Z" stroke-miterlimit="10"/></g><g transform="translate(-10,-10) scale(1,1)"><rect fill="#ffffff" stroke="none" x="141.8033447265625" y="20" width="27.28691406249999" height="15"/></g><g transform="translate(-10,-10) scale(1,1)"><path fill="none" stroke="#000000" d="M 141.8033447265625 20 L 169.0902587890625 20 L 169.0902587890625 35 L 141.8033447265625 35 L 141.8033447265625 20 Z Z" stroke-miterlimit="10"/></g><g transform="translate(-10,-10) scale(1,1)"><rect fill="#ffffff" stroke="none" x="141.8033447265625" y="34" width="68.21728515625" height="25"/></g><g transform="translate(-10,-10) scale(1,1)"><path fill="none" stroke="#000000" d="M 141.8033447265625 34 L 210.0206298828125 34 L 210.0206298828125 59 L 141.8033447265625 59 L 141.8033447265625 34 Z Z" stroke-miterlimit="10"/></g><g transform="translate(-10,-10) scale(1,1)"><g><path fill="none" stroke="none"/><text fill="#000000" stroke="none" font-family="Arial" font-size="13px" font-style="normal" font-weight="bold" text-decoration="none" x="149.5343017578125" y="54.5">Buildings</text></g></g><g transform="translate(-10,-10) scale(1,1)"><rect fill="#C0C0C0" stroke="none" x="27" y="97" width="22.9654296875" height="15" opacity="0.2"/></g><g transform="translate(-10,-10) scale(1,1)"><rect fill="#C0C0C0" stroke="none" x="27" y="111" width="57.41357421875" height="25" opacity="0.2"/></g><g transform="translate(-10,-10) scale(1,1)"><rect fill="#ffffff" stroke="none" x="20" y="105" width="57.41357421875" height="24"/></g><g transform="translate(-10,-10) scale(1,1)"><path fill="none" stroke="#000000" d="M 20 105 L 77.41357421875 105 L 77.41357421875 129 L 20 129 L 20 105 Z Z" stroke-miterlimit="10"/></g><g transform="translate(-10,-10) scale(1,1)"><rect fill="#ffffff" stroke="none" x="20" y="90" width="22.9654296875" height="15"/></g><g transform="translate(-10,-10) scale(1,1)"><path fill="none" stroke="#000000" d="M 20 90 L 42.9654296875 90 L 42.9654296875 105 L 20 105 L 20 90 Z Z" stroke-miterlimit="10"/></g><g transform="translate(-10,-10) scale(1,1)"><rect fill="#ffffff" stroke="none" x="20" y="104" width="57.41357421875" height="25"/></g><g transform="translate(-10,-10) scale(1,1)"><path fill="none" stroke="#000000" d="M 20 104 L 77.41357421875 104 L 77.41357421875 129 L 20 129 L 20 104 Z Z" stroke-miterlimit="10"/></g><g transform="translate(-10,-10) scale(1,1)"><g><path fill="none" stroke="none"/><text fill="#000000" stroke="none" font-family="Arial" font-size="13px" font-style="normal" font-weight="bold" text-decoration="none" x="25.582275390625" y="124.5">General</text></g></g><g transform="translate(-10,-10) scale(1,1)"><rect fill="#C0C0C0" stroke="none" x="115.41357421875" y="97" width="19.599999999999994" height="15" opacity="0.2"/></g><g transform="translate(-10,-10) scale(1,1)"><rect fill="#C0C0C0" stroke="none" x="115.41357421875" y="111" width="49" height="25" opacity="0.2"/></g><g transform="translate(-10,-10) scale(1,1)"><rect fill="#ffffff" stroke="none" x="108.41357421875" y="105" width="49" height="24"/></g><g transform="translate(-10,-10) scale(1,1)"><path fill="none" stroke="#000000" d="M 108.41357421875 105 L 157.41357421875 105 L 157.41357421875 129 L 108.41357421875 129 L 108.41357421875 105 Z Z" stroke-miterlimit="10"/></g><g transform="translate(-10,-10) scale(1,1)"><rect fill="#ffffff" stroke="none" x="108.41357421875" y="90" width="19.599999999999994" height="15"/></g><g transform="translate(-10,-10) scale(1,1)"><path fill="none" stroke="#000000" d="M 108.41357421875 90 L 128.01357421875 90 L 128.01357421875 105 L 108.41357421875 105 L 108.41357421875 90 Z Z" stroke-miterlimit="10"/></g><g transform="translate(-10,-10) scale(1,1)"><rect fill="#ffffff" stroke="none" x="108.41357421875" y="104" width="49" height="25"/></g><g transform="translate(-10,-10) scale(1,1)"><path fill="none" stroke="#000000" d="M 108.41357421875 104 L 157.41357421875 104 L 157.41357421875 129 L 108.41357421875 129 L 108.41357421875 104 Z Z" stroke-miterlimit="10"/></g><g transform="translate(-10,-10) scale(1,1)"><g><path fill="none" stroke="none"/><text fill="#000000" stroke="none" font-family="Arial" font-size="13px" font-style="normal" font-weight="bold" text-decoration="none" x="118.09814453125" y="124.5">Food</text></g></g><g transform="translate(-10,-10) scale(1,1)"><rect fill="#C0C0C0" stroke="none" x="195.41357421875" y="97" width="24.3974609375" height="15" opacity="0.2"/></g><g transform="translate(-10,-10) scale(1,1)"><rect fill="#C0C0C0" stroke="none" x="195.41357421875" y="111" width="60.99365234375" height="25" opacity="0.2"/></g><g transform="translate(-10,-10) scale(1,1)"><rect fill="#ffffff" stroke="none" x="188.41357421875" y="105" width="60.99365234375" height="24"/></g><g transform="translate(-10,-10) scale(1,1)"><path fill="none" stroke="#000000" d="M 188.41357421875 105 L 249.4072265625 105 L 249.4072265625 129 L 188.41357421875 129 L 188.41357421875 105 Z Z" stroke-miterlimit="10"/></g><g transform="translate(-10,-10) scale(1,1)"><rect fill="#ffffff" stroke="none" x="188.41357421875" y="90" width="24.3974609375" height="15"/></g><g transform="translate(-10,-10) scale(1,1)"><path fill="none" stroke="#000000" d="M 188.41357421875 90 L 212.81103515625 90 L 212.81103515625 105 L 188.41357421875 105 L 188.41357421875 90 Z Z" stroke-miterlimit="10"/></g><g transform="translate(-10,-10) scale(1,1)"><rect fill="#ffffff" stroke="none" x="188.41357421875" y="104" width="60.99365234375" height="25"/></g><g transform="translate(-10,-10) scale(1,1)"><path fill="none" stroke="#000000" d="M 188.41357421875 104 L 249.4072265625 104 L 249.4072265625 129 L 188.41357421875 129 L 188.41357421875 104 Z Z" stroke-miterlimit="10"/></g><g transform="translate(-10,-10) scale(1,1)"><g><path fill="none" stroke="none"/><text fill="#000000" stroke="none" font-family="Arial" font-size="13px" font-style="normal" font-weight="bold" text-decoration="none" x="195.062255859375" y="124.5">Housing</text></g></g><g transform="translate(-10,-10) scale(1,1)"><rect fill="#C0C0C0" stroke="none" x="287.4072265625" y="97" width="19.600000000000023" height="15" opacity="0.2"/></g><g transform="translate(-10,-10) scale(1,1)"><rect fill="#C0C0C0" stroke="none" x="287.4072265625" y="111" width="49" height="25" opacity="0.2"/></g><g transform="translate(-10,-10) scale(1,1)"><rect fill="#ffffff" stroke="none" x="280.4072265625" y="105" width="49" height="24"/></g><g transform="translate(-10,-10) scale(1,1)"><path fill="none" stroke="#000000" d="M 280.4072265625 105 L 329.4072265625 105 L 329.4072265625 129 L 280.4072265625 129 L 280.4072265625 105 Z Z" stroke-miterlimit="10"/></g><g transform="translate(-10,-10) scale(1,1)"><rect fill="#ffffff" stroke="none" x="280.4072265625" y="90" width="19.600000000000023" height="15"/></g><g transform="translate(-10,-10) scale(1,1)"><path fill="none" stroke="#000000" d="M 280.4072265625 90 L 300.0072265625 90 L 300.0072265625 105 L 280.4072265625 105 L 280.4072265625 90 Z Z" stroke-miterlimit="10"/></g><g transform="translate(-10,-10) scale(1,1)"><rect fill="#ffffff" stroke="none" x="280.4072265625" y="104" width="49" height="25"/></g><g transform="translate(-10,-10) scale(1,1)"><path fill="none" stroke="#000000" d="M 280.4072265625 104 L 329.4072265625 104 L 329.4072265625 129 L 280.4072265625 129 L 280.4072265625 104 Z Z" stroke-miterlimit="10"/></g><g transform="translate(-10,-10) scale(1,1)"><g><path fill="none" stroke="none"/><text fill="#000000" stroke="none" font-family="Arial" font-size="13px" font-style="normal" font-weight="bold" text-decoration="none" x="287.81298828125" y="124.5">Water</text></g></g><g transform="translate(-10,-10) scale(1,1)"><rect fill="#C0C0C0" stroke="none" x="367.042236328125" y="27" width="41.74433593750001" height="15" opacity="0.2"/></g><g transform="translate(-10,-10) scale(1,1)"><rect fill="#C0C0C0" stroke="none" x="367.042236328125" y="41" width="104.36083984375" height="25" opacity="0.2"/></g><g transform="translate(-10,-10) scale(1,1)"><rect fill="#ffffff" stroke="none" x="360.042236328125" y="35" width="104.36083984375" height="24"/></g><g transform="translate(-10,-10) scale(1,1)"><path fill="none" stroke="#000000" d="M 360.042236328125 35 L 464.403076171875 35 L 464.403076171875 59 L 360.042236328125 59 L 360.042236328125 35 Z Z" stroke-miterlimit="10"/></g><g transform="translate(-10,-10) scale(1,1)"><rect fill="#ffffff" stroke="none" x="360.042236328125" y="20" width="41.74433593750001" height="15"/></g><g transform="translate(-10,-10) scale(1,1)"><path fill="none" stroke="#000000" d="M 360.042236328125 20 L 401.786572265625 20 L 401.786572265625 35 L 360.042236328125 35 L 360.042236328125 20 Z Z" stroke-miterlimit="10"/></g><g transform="translate(-10,-10) scale(1,1)"><rect fill="#ffffff" stroke="none" x="360.042236328125" y="34" width="104.36083984375" height="25"/></g><g transform="translate(-10,-10) scale(1,1)"><path fill="none" stroke="#000000" d="M 360.042236328125 34 L 464.403076171875 34 L 464.403076171875 59 L 360.042236328125 59 L 360.042236328125 34 Z Z" stroke-miterlimit="10"/></g><g transform="translate(-10,-10) scale(1,1)"><g><path fill="none" stroke="none"/><text fill="#000000" stroke="none" font-family="Arial" font-size="13px" font-style="normal" font-weight="bold" text-decoration="none" x="367.062255859375" y="54.5">OtherManagers</text></g></g><g transform="translate(-10,-10) scale(1,1)"><rect fill="#C0C0C0" stroke="none" x="367.4072265625" y="97" width="41.45234375000001" height="15" opacity="0.2"/></g><g transform="translate(-10,-10) scale(1,1)"><rect fill="#C0C0C0" stroke="none" x="367.4072265625" y="111" width="103.630859375" height="25" opacity="0.2"/></g><g transform="translate(-10,-10) scale(1,1)"><rect fill="#ffffff" stroke="none" x="360.4072265625" y="105" width="103.630859375" height="24"/></g><g transform="translate(-10,-10) scale(1,1)"><path fill="none" stroke="#000000" d="M 360.4072265625 105 L 464.0380859375 105 L 464.0380859375 129 L 360.4072265625 129 L 360.4072265625 105 Z Z" stroke-miterlimit="10"/></g><g transform="translate(-10,-10) scale(1,1)"><rect fill="#ffffff" stroke="none" x="360.4072265625" y="90" width="41.45234375000001" height="15"/></g><g transform="translate(-10,-10) scale(1,1)"><path fill="none" stroke="#000000" d="M 360.4072265625 90 L 401.8595703125 90 L 401.8595703125 105 L 360.4072265625 105 L 360.4072265625 90 Z Z" stroke-miterlimit="10"/></g><g transform="translate(-10,-10) scale(1,1)"><rect fill="#ffffff" stroke="none" x="360.4072265625" y="104" width="103.630859375" height="25"/></g><g transform="translate(-10,-10) scale(1,1)"><path fill="none" stroke="#000000" d="M 360.4072265625 104 L 464.0380859375 104 L 464.0380859375 129 L 360.4072265625 129 L 360.4072265625 104 Z Z" stroke-miterlimit="10"/></g><g transform="translate(-10,-10) scale(1,1)"><g><path fill="none" stroke="none"/><text fill="#000000" stroke="none" font-family="Arial" font-size="13px" font-style="normal" font-weight="bold" text-decoration="none" x="367.78271484375" y="124.5">RandomEvents</text></g></g><g transform="translate(-10,-10) scale(1,1)"><rect fill="#C0C0C0" stroke="none" x="349.34814453125" y="167" width="55.89960937500001" height="15" opacity="0.2"/></g><g transform="translate(-10,-10) scale(1,1)"><rect fill="#C0C0C0" stroke="none" x="349.34814453125" y="181" width="139.7490234375" height="25" opacity="0.2"/></g><g transform="translate(-10,-10) scale(1,1)"><rect fill="#ffffff" stroke="none" x="342.34814453125" y="175" width="139.7490234375" height="24"/></g><g transform="translate(-10,-10) scale(1,1)"><path fill="none" stroke="#000000" d="M 342.34814453125 175 L 482.09716796875 175 L 482.09716796875 199 L 342.34814453125 199 L 342.34814453125 175 Z Z" stroke-miterlimit="10"/></g><g transform="translate(-10,-10) scale(1,1)"><rect fill="#ffffff" stroke="none" x="342.34814453125" y="160" width="55.89960937500001" height="15"/></g><g transform="translate(-10,-10) scale(1,1)"><path fill="none" stroke="#000000" d="M 342.34814453125 160 L 398.24775390625 160 L 398.24775390625 175 L 342.34814453125 175 L 342.34814453125 160 Z Z" stroke-miterlimit="10"/></g><g transform="translate(-10,-10) scale(1,1)"><rect fill="#ffffff" stroke="none" x="342.34814453125" y="174" width="139.7490234375" height="25"/></g><g transform="translate(-10,-10) scale(1,1)"><path fill="none" stroke="#000000" d="M 342.34814453125 174 L 482.09716796875 174 L 482.09716796875 199 L 342.34814453125 199 L 342.34814453125 174 Z Z" stroke-miterlimit="10"/></g><g transform="translate(-10,-10) scale(1,1)"><g><path fill="none" stroke="none"/><text fill="#000000" stroke="none" font-family="Arial" font-size="13px" font-style="normal" font-weight="bold" text-decoration="none" x="351.281982421875" y="194.5">RandomEventEffects</text></g></g><g transform="translate(-10,-10) scale(1,1)"><rect fill="#C0C0C0" stroke="none" x="502.403076171875" y="27" width="48.399218750000045" height="15" opacity="0.2"/></g><g transform="translate(-10,-10) scale(1,1)"><rect fill="#C0C0C0" stroke="none" x="502.403076171875" y="41" width="120.998046875" height="25" opacity="0.2"/></g><g transform="translate(-10,-10) scale(1,1)"><rect fill="#ffffff" stroke="none" x="495.403076171875" y="35" width="120.998046875" height="24"/></g><g transform="translate(-10,-10) scale(1,1)"><path fill="none" stroke="#000000" d="M 495.403076171875 35 L 616.401123046875 35 L 616.401123046875 59 L 495.403076171875 59 L 495.403076171875 35 Z Z" stroke-miterlimit="10"/></g><g transform="translate(-10,-10) scale(1,1)"><rect fill="#ffffff" stroke="none" x="495.403076171875" y="20" width="48.399218750000045" height="15"/></g><g transform="translate(-10,-10) scale(1,1)"><path fill="none" stroke="#000000" d="M 495.403076171875 20 L 543.802294921875 20 L 543.802294921875 35 L 495.403076171875 35 L 495.403076171875 20 Z Z" stroke-miterlimit="10"/></g><g transform="translate(-10,-10) scale(1,1)"><rect fill="#ffffff" stroke="none" x="495.403076171875" y="34" width="120.998046875" height="25"/></g><g transform="translate(-10,-10) scale(1,1)"><path fill="none" stroke="#000000" d="M 495.403076171875 34 L 616.401123046875 34 L 616.401123046875 59 L 495.403076171875 59 L 495.403076171875 34 Z Z" stroke-miterlimit="10"/></g><g transform="translate(-10,-10) scale(1,1)"><g><path fill="none" stroke="none"/><text fill="#000000" stroke="none" font-family="Arial" font-size="13px" font-style="normal" font-weight="bold" text-decoration="none" x="502.79443359375" y="54.5">PlayerAndCamera</text></g></g><g transform="translate(-10,-10) scale(1,1)"><rect fill="#C0C0C0" stroke="none" x="654.401123046875" y="27" width="27.007617187500045" height="15" opacity="0.2"/></g><g transform="translate(-10,-10) scale(1,1)"><rect fill="#C0C0C0" stroke="none" x="654.401123046875" y="41" width="67.51904296875" height="25" opacity="0.2"/></g><g transform="translate(-10,-10) scale(1,1)"><rect fill="#ffffff" stroke="none" x="647.401123046875" y="35" width="67.51904296875" height="24"/></g><g transform="translate(-10,-10) scale(1,1)"><path fill="none" stroke="#000000" d="M 647.401123046875 35 L 714.920166015625 35 L 714.920166015625 59 L 647.401123046875 59 L 647.401123046875 35 Z Z" stroke-miterlimit="10"/></g><g transform="translate(-10,-10) scale(1,1)"><rect fill="#ffffff" stroke="none" x="647.401123046875" y="20" width="27.007617187500045" height="15"/></g><g transform="translate(-10,-10) scale(1,1)"><path fill="none" stroke="#000000" d="M 647.401123046875 20 L 674.408740234375 20 L 674.408740234375 35 L 647.401123046875 35 L 647.401123046875 20 Z Z" stroke-miterlimit="10"/></g><g transform="translate(-10,-10) scale(1,1)"><rect fill="#ffffff" stroke="none" x="647.401123046875" y="34" width="67.51904296875" height="25"/></g><g transform="translate(-10,-10) scale(1,1)"><path fill="none" stroke="#000000" d="M 647.401123046875 34 L 714.920166015625 34 L 714.920166015625 59 L 647.401123046875 59 L 647.401123046875 34 Z Z" stroke-miterlimit="10"/></g><g transform="translate(-10,-10) scale(1,1)"><g><path fill="none" stroke="none"/><text fill="#000000" stroke="none" font-family="Arial" font-size="13px" font-style="normal" font-weight="bold" text-decoration="none" x="653.335693359375" y="54.5">Refugees</text></g></g><g transform="translate(-10,-10) scale(1,1)"><rect fill="#C0C0C0" stroke="none" x="752.920166015625" y="27" width="19.600000000000023" height="15" opacity="0.2"/></g><g transform="translate(-10,-10) scale(1,1)"><rect fill="#C0C0C0" stroke="none" x="752.920166015625" y="41" width="49" height="25" opacity="0.2"/></g><g transform="translate(-10,-10) scale(1,1)"><rect fill="#ffffff" stroke="none" x="745.920166015625" y="35" width="49" height="24"/></g><g transform="translate(-10,-10) scale(1,1)"><path fill="none" stroke="#000000" d="M 745.920166015625 35 L 794.920166015625 35 L 794.920166015625 59 L 745.920166015625 59 L 745.920166015625 35 Z Z" stroke-miterlimit="10"/></g><g transform="translate(-10,-10) scale(1,1)"><rect fill="#ffffff" stroke="none" x="745.920166015625" y="20" width="19.600000000000023" height="15"/></g><g transform="translate(-10,-10) scale(1,1)"><path fill="none" stroke="#000000" d="M 745.920166015625 20 L 765.520166015625 20 L 765.520166015625 35 L 745.920166015625 35 L 745.920166015625 20 Z Z" stroke-miterlimit="10"/></g><g transform="translate(-10,-10) scale(1,1)"><rect fill="#ffffff" stroke="none" x="745.920166015625" y="34" width="49" height="25"/></g><g transform="translate(-10,-10) scale(1,1)"><path fill="none" stroke="#000000" d="M 745.920166015625 34 L 794.920166015625 34 L 794.920166015625 59 L 745.920166015625 59 L 745.920166015625 34 Z Z" stroke-miterlimit="10"/></g><g transform="translate(-10,-10) scale(1,1)"><g><path fill="none" stroke="none"/><text fill="#000000" stroke="none" font-family="Arial" font-size="13px" font-style="normal" font-weight="bold" text-decoration="none" x="755.60791015625" y="54.5">Stats</text></g></g><g transform="translate(-10,-10) scale(1,1)"><rect fill="#C0C0C0" stroke="none" x="732.80615234375" y="97" width="35.691210937500045" height="15" opacity="0.2"/></g><g transform="translate(-10,-10) scale(1,1)"><rect fill="#C0C0C0" stroke="none" x="732.80615234375" y="111" width="89.22802734375" height="25" opacity="0.2"/></g><g transform="translate(-10,-10) scale(1,1)"><rect fill="#ffffff" stroke="none" x="725.80615234375" y="105" width="89.22802734375" height="24"/></g><g transform="translate(-10,-10) scale(1,1)"><path fill="none" stroke="#000000" d="M 725.80615234375 105 L 815.0341796875 105 L 815.0341796875 129 L 725.80615234375 129 L 725.80615234375 105 Z Z" stroke-miterlimit="10"/></g><g transform="translate(-10,-10) scale(1,1)"><rect fill="#ffffff" stroke="none" x="725.80615234375" y="90" width="35.691210937500045" height="15"/></g><g transform="translate(-10,-10) scale(1,1)"><path fill="none" stroke="#000000" d="M 725.80615234375 90 L 761.49736328125 90 L 761.49736328125 105 L 725.80615234375 105 L 725.80615234375 90 Z Z" stroke-miterlimit="10"/></g><g transform="translate(-10,-10) scale(1,1)"><rect fill="#ffffff" stroke="none" x="725.80615234375" y="104" width="89.22802734375" height="25"/></g><g transform="translate(-10,-10) scale(1,1)"><path fill="none" stroke="#000000" d="M 725.80615234375 104 L 815.0341796875 104 L 815.0341796875 129 L 725.80615234375 129 L 725.80615234375 104 Z Z" stroke-miterlimit="10"/></g><g transform="translate(-10,-10) scale(1,1)"><g><path fill="none" stroke="none"/><text fill="#000000" stroke="none" font-family="Arial" font-size="13px" font-style="normal" font-weight="bold" text-decoration="none" x="732.486572265625" y="124.5">BaseClasses</text></g></g><g transform="translate(-10,-10) scale(1,1)"><rect fill="#C0C0C0" stroke="none" x="832.920166015625" y="27" width="19.600000000000023" height="15" opacity="0.2"/></g><g transform="translate(-10,-10) scale(1,1)"><rect fill="#C0C0C0" stroke="none" x="832.920166015625" y="41" width="49" height="25" opacity="0.2"/></g><g transform="translate(-10,-10) scale(1,1)"><rect fill="#ffffff" stroke="none" x="825.920166015625" y="35" width="49" height="24"/></g><g transform="translate(-10,-10) scale(1,1)"><path fill="none" stroke="#000000" d="M 825.920166015625 35 L 874.920166015625 35 L 874.920166015625 59 L 825.920166015625 59 L 825.920166015625 35 Z Z" stroke-miterlimit="10"/></g><g transform="translate(-10,-10) scale(1,1)"><rect fill="#ffffff" stroke="none" x="825.920166015625" y="20" width="19.600000000000023" height="15"/></g><g transform="translate(-10,-10) scale(1,1)"><path fill="none" stroke="#000000" d="M 825.920166015625 20 L 845.520166015625 20 L 845.520166015625 35 L 825.920166015625 35 L 825.920166015625 20 Z Z" stroke-miterlimit="10"/></g><g transform="translate(-10,-10) scale(1,1)"><rect fill="#ffffff" stroke="none" x="825.920166015625" y="34" width="49" height="25"/></g><g transform="translate(-10,-10) scale(1,1)"><path fill="none" stroke="#000000" d="M 825.920166015625 34 L 874.920166015625 34 L 874.920166015625 59 L 825.920166015625 59 L 825.920166015625 34 Z Z" stroke-miterlimit="10"/></g><g transform="translate(-10,-10) scale(1,1)"><g><path fill="none" stroke="none"/><text fill="#000000" stroke="none" font-family="Arial" font-size="13px" font-style="normal" font-weight="bold" text-decoration="none" x="843.920166015625" y="54.5">UI</text></g></g><g transform="translate(-10,-10) scale(1,1)"><rect fill="#C0C0C0" stroke="none" x="912.920166015625" y="27" width="19.600000000000023" height="15" opacity="0.2"/></g><g transform="translate(-10,-10) scale(1,1)"><rect fill="#C0C0C0" stroke="none" x="912.920166015625" y="41" width="49" height="25" opacity="0.2"/></g><g transform="translate(-10,-10) scale(1,1)"><rect fill="#ffffff" stroke="none" x="905.920166015625" y="35" width="49" height="24"/></g><g transform="translate(-10,-10) scale(1,1)"><path fill="none" stroke="#000000" d="M 905.920166015625 35 L 954.920166015625 35 L 954.920166015625 59 L 905.920166015625 59 L 905.920166015625 35 Z Z" stroke-miterlimit="10"/></g><g transform="translate(-10,-10) scale(1,1)"><rect fill="#ffffff" stroke="none" x="905.920166015625" y="20" width="19.600000000000023" height="15"/></g><g transform="translate(-10,-10) scale(1,1)"><path fill="none" stroke="#000000" d="M 905.920166015625 20 L 925.520166015625 20 L 925.520166015625 35 L 905.920166015625 35 L 905.920166015625 20 Z Z" stroke-miterlimit="10"/></g><g transform="translate(-10,-10) scale(1,1)"><rect fill="#ffffff" stroke="none" x="905.920166015625" y="34" width="49" height="25"/></g><g transform="translate(-10,-10) scale(1,1)"><path fill="none" stroke="#000000" d="M 905.920166015625 34 L 954.920166015625 34 L 954.920166015625 59 L 905.920166015625 59 L 905.920166015625 34 Z Z" stroke-miterlimit="10"/></g><g transform="translate(-10,-10) scale(1,1)"><g><path fill="none" stroke="none"/><text fill="#000000" stroke="none" font-family="Arial" font-size="13px" font-style="normal" font-weight="bold" text-decoration="none" x="914.531982421875" y="54.5">Utility</text></g></g><g transform="translate(-10,-10) scale(1,1)"><rect fill="#C0C0C0" stroke="none" x="887.404296875" y="97" width="40.0126953125" height="15" opacity="0.2"/></g><g transform="translate(-10,-10) scale(1,1)"><rect fill="#C0C0C0" stroke="none" x="887.404296875" y="111" width="100.03173828125" height="25" opacity="0.2"/></g><g transform="translate(-10,-10) scale(1,1)"><rect fill="#ffffff" stroke="none" x="880.404296875" y="105" width="100.03173828125" height="24"/></g><g transform="translate(-10,-10) scale(1,1)"><path fill="none" stroke="#000000" d="M 880.404296875 105 L 980.43603515625 105 L 980.43603515625 129 L 880.404296875 129 L 880.404296875 105 Z Z" stroke-miterlimit="10"/></g><g transform="translate(-10,-10) scale(1,1)"><rect fill="#ffffff" stroke="none" x="880.404296875" y="90" width="40.0126953125" height="15"/></g><g transform="translate(-10,-10) scale(1,1)"><path fill="none" stroke="#000000" d="M 880.404296875 90 L 920.4169921875 90 L 920.4169921875 105 L 880.404296875 105 L 880.404296875 90 Z Z" stroke-miterlimit="10"/></g><g transform="translate(-10,-10) scale(1,1)"><rect fill="#ffffff" stroke="none" x="880.404296875" y="104" width="100.03173828125" height="25"/></g><g transform="translate(-10,-10) scale(1,1)"><path fill="none" stroke="#000000" d="M 880.404296875 104 L 980.43603515625 104 L 980.43603515625 129 L 880.404296875 129 L 880.404296875 104 Z Z" stroke-miterlimit="10"/></g><g transform="translate(-10,-10) scale(1,1)"><g><path fill="none" stroke="none"/><text fill="#000000" stroke="none" font-family="Arial" font-size="13px" font-style="normal" font-weight="bold" text-decoration="none" x="887.7861328125" y="124.5">EventHandlers</text></g></g><g transform="translate(-10,-10) scale(1,1)"><rect fill="#C0C0C0" stroke="none" x="705.74072265625" y="167" width="36.82871093749998" height="15" opacity="0.2"/></g><g transform="translate(-10,-10) scale(1,1)"><rect fill="#C0C0C0" stroke="none" x="705.74072265625" y="181" width="92.07177734375" height="25" opacity="0.2"/></g><g transform="translate(-10,-10) scale(1,1)"><rect fill="#ffffff" stroke="none" x="698.74072265625" y="175" width="92.07177734375" height="24"/></g><g transform="translate(-10,-10) scale(1,1)"><path fill="none" stroke="#000000" d="M 698.74072265625 175 L 790.8125 175 L 790.8125 199 L 698.74072265625 199 L 698.74072265625 175 Z Z" stroke-miterlimit="10"/></g><g transform="translate(-10,-10) scale(1,1)"><rect fill="#ffffff" stroke="none" x="698.74072265625" y="160" width="36.82871093749998" height="15"/></g><g transform="translate(-10,-10) scale(1,1)"><path fill="none" stroke="#000000" d="M 698.74072265625 160 L 735.56943359375 160 L 735.56943359375 175 L 698.74072265625 175 L 698.74072265625 160 Z Z" stroke-miterlimit="10"/></g><g transform="translate(-10,-10) scale(1,1)"><rect fill="#ffffff" stroke="none" x="698.74072265625" y="174" width="92.07177734375" height="25"/></g><g transform="translate(-10,-10) scale(1,1)"><path fill="none" stroke="#000000" d="M 698.74072265625 174 L 790.8125 174 L 790.8125 199 L 698.74072265625 199 L 698.74072265625 174 Z Z" stroke-miterlimit="10"/></g><g transform="translate(-10,-10) scale(1,1)"><g><path fill="none" stroke="none"/><text fill="#000000" stroke="none" font-family="Arial" font-size="13px" font-style="normal" font-weight="bold" text-decoration="none" x="706.83984375" y="194.5">EventActions</text></g></g><g transform="translate(-10,-10) scale(1,1)"><rect fill="#C0C0C0" stroke="none" x="952.0140380859375" y="167" width="38.278515624999955" height="15" opacity="0.2"/></g><g transform="translate(-10,-10) scale(1,1)"><rect fill="#C0C0C0" stroke="none" x="952.0140380859375" y="181" width="95.6962890625" height="25" opacity="0.2"/></g><g transform="translate(-10,-10) scale(1,1)"><rect fill="#ffffff" stroke="none" x="945.0140380859375" y="175" width="95.6962890625" height="24"/></g><g transform="translate(-10,-10) scale(1,1)"><path fill="none" stroke="#000000" d="M 945.0140380859375 175 L 1040.7103271484375 175 L 1040.7103271484375 199 L 945.0140380859375 199 L 945.0140380859375 175 Z Z" stroke-miterlimit="10"/></g><g transform="translate(-10,-10) scale(1,1)"><rect fill="#ffffff" stroke="none" x="945.0140380859375" y="160" width="38.278515624999955" height="15"/></g><g transform="translate(-10,-10) scale(1,1)"><path fill="none" stroke="#000000" d="M 945.0140380859375 160 L 983.2925537109375 160 L 983.2925537109375 175 L 945.0140380859375 175 L 945.0140380859375 160 Z Z" stroke-miterlimit="10"/></g><g transform="translate(-10,-10) scale(1,1)"><rect fill="#ffffff" stroke="none" x="945.0140380859375" y="174" width="95.6962890625" height="25"/></g><g transform="translate(-10,-10) scale(1,1)"><path fill="none" stroke="#000000" d="M 945.0140380859375 174 L 1040.7103271484375 174 L 1040.7103271484375 199 L 945.0140380859375 199 L 945.0140380859375 174 Z Z" stroke-miterlimit="10"/></g><g transform="translate(-10,-10) scale(1,1)"><g><path fill="none" stroke="none"/><text fill="#000000" stroke="none" font-family="Arial" font-size="13px" font-style="normal" font-weight="bold" text-decoration="none" x="952.6434326171875" y="194.5">EventTriggers</text></g></g><g transform="translate(-10,-10) scale(1,1)"><path fill="none" stroke="#000000" d="M 49 89 Q 49 75 141 49" stroke-miterlimit="10"/></g><g transform="translate(-10,-10) scale(1,1)"><path fill="#FFFFFF" stroke="none" d="M 127.2638341782496 50.903699036581635 C 127.2638341782496 47.03770543658163 130.3978405782496 43.903699036581635 134.2638341782496 43.903699036581635 C 138.1298277782496 43.903699036581635 141.2638341782496 47.03770543658163 141.2638341782496 50.903699036581635 C 141.2638341782496 54.76969263658164 138.1298277782496 57.903699036581635 134.2638341782496 57.903699036581635 C 130.3978405782496 57.903699036581635 127.2638341782496 54.76969263658164 127.2638341782496 50.903699036581635 Z"/></g><g transform="translate(-10,-10) scale(1,1)"><path fill="none" stroke="#000000" d="M 127.2638341782496 50.903699036581635 C 127.2638341782496 47.03770543658163 130.3978405782496 43.903699036581635 134.2638341782496 43.903699036581635 C 138.1298277782496 43.903699036581635 141.2638341782496 47.03770543658163 141.2638341782496 50.903699036581635 C 141.2638341782496 54.76969263658164 138.1298277782496 57.903699036581635 134.2638341782496 57.903699036581635 C 130.3978405782496 57.903699036581635 127.2638341782496 54.76969263658164 127.2638341782496 50.903699036581635 Z" stroke-miterlimit="10"/></g><g transform="translate(-10,-10) scale(1,1)"><path fill="none" stroke="#000000" d="M 127.52766835649922 52.80739807316327 L 141 49" stroke-miterlimit="10"/></g><g transform="translate(-10,-10) scale(1,1)"><path fill="none" stroke="#000000" d="M 136.16753321483122 57.63986485833203 L 132.36013514166797 44.16753321483124" stroke-miterlimit="10"/></g><g transform="translate(-10,-10) scale(1,1)"><path fill="none" stroke="#000000" d="M 133 89 Q 133 75 151 60" stroke-miterlimit="10"/></g><g transform="translate(-10,-10) scale(1,1)"><path fill="#FFFFFF" stroke="none" d="M 138.62245104281837 64.48129079765135 C 138.62245104281837 60.61529719765135 141.75645744281837 57.481290797651354 145.62245104281837 57.481290797651354 C 149.48844464281837 57.481290797651354 152.62245104281837 60.61529719765135 152.62245104281837 64.48129079765135 C 152.62245104281837 68.34728439765135 149.48844464281837 71.48129079765135 145.62245104281837 71.48129079765135 C 141.75645744281837 71.48129079765135 138.62245104281837 68.34728439765135 138.62245104281837 64.48129079765135 Z"/></g><g transform="translate(-10,-10) scale(1,1)"><path fill="none" stroke="#000000" d="M 138.62245104281837 64.48129079765135 C 138.62245104281837 60.61529719765135 141.75645744281837 57.481290797651354 145.62245104281837 57.481290797651354 C 149.48844464281837 57.481290797651354 152.62245104281837 60.61529719765135 152.62245104281837 64.48129079765135 C 152.62245104281837 68.34728439765135 149.48844464281837 71.48129079765135 145.62245104281837 71.48129079765135 C 141.75645744281837 71.48129079765135 138.62245104281837 68.34728439765135 138.62245104281837 64.48129079765135 Z" stroke-miterlimit="10"/></g><g transform="translate(-10,-10) scale(1,1)"><path fill="none" stroke="#000000" d="M 140.24490208563674 68.96258159530272 L 151 60" stroke-miterlimit="10"/></g><g transform="translate(-10,-10) scale(1,1)"><path fill="none" stroke="#000000" d="M 150.10374184046972 69.85883975483299 L 141.14116024516701 59.10374184046972" stroke-miterlimit="10"/></g><g transform="translate(-10,-10) scale(1,1)"><path fill="none" stroke="#000000" d="M 219 89 Q 219 75 201 60" stroke-miterlimit="10"/></g><g transform="translate(-10,-10) scale(1,1)"><path fill="#FFFFFF" stroke="none" d="M 199.37754895718163 64.48129079765135 C 199.37754895718163 60.61529719765135 202.51155535718163 57.481290797651354 206.37754895718163 57.481290797651354 C 210.24354255718163 57.481290797651354 213.37754895718163 60.61529719765135 213.37754895718163 64.48129079765135 C 213.37754895718163 68.34728439765135 210.24354255718163 71.48129079765135 206.37754895718163 71.48129079765135 C 202.51155535718163 71.48129079765135 199.37754895718163 68.34728439765135 199.37754895718163 64.48129079765135 Z"/></g><g transform="translate(-10,-10) scale(1,1)"><path fill="none" stroke="#000000" d="M 199.37754895718163 64.48129079765135 C 199.37754895718163 60.61529719765135 202.51155535718163 57.481290797651354 206.37754895718163 57.481290797651354 C 210.24354255718163 57.481290797651354 213.37754895718163 60.61529719765135 213.37754895718163 64.48129079765135 C 213.37754895718163 68.34728439765135 210.24354255718163 71.48129079765135 206.37754895718163 71.48129079765135 C 202.51155535718163 71.48129079765135 199.37754895718163 68.34728439765135 199.37754895718163 64.48129079765135 Z" stroke-miterlimit="10"/></g><g transform="translate(-10,-10) scale(1,1)"><path fill="none" stroke="#000000" d="M 211.75509791436326 68.96258159530272 L 201 60" stroke-miterlimit="10"/></g><g transform="translate(-10,-10) scale(1,1)"><path fill="none" stroke="#000000" d="M 210.85883975483299 59.10374184046972 L 201.89625815953028 69.85883975483299" stroke-miterlimit="10"/></g><g transform="translate(-10,-10) scale(1,1)"><path fill="none" stroke="#000000" d="M 305 89 Q 305 75 211 49" stroke-miterlimit="10"/></g><g transform="translate(-10,-10) scale(1,1)"><path fill="#FFFFFF" stroke="none" d="M 210.7466778417794 50.86610238176877 C 210.7466778417794 47.000108781768766 213.8806842417794 43.86610238176877 217.7466778417794 43.86610238176877 C 221.61267144177938 43.86610238176877 224.7466778417794 47.000108781768766 224.7466778417794 50.86610238176877 C 224.7466778417794 54.73209598176877 221.61267144177938 57.86610238176877 217.7466778417794 57.86610238176877 C 213.8806842417794 57.86610238176877 210.7466778417794 54.73209598176877 210.7466778417794 50.86610238176877 Z"/></g><g transform="translate(-10,-10) scale(1,1)"><path fill="none" stroke="#000000" d="M 210.7466778417794 50.86610238176877 C 210.7466778417794 47.000108781768766 213.8806842417794 43.86610238176877 217.7466778417794 43.86610238176877 C 221.61267144177938 43.86610238176877 224.7466778417794 47.000108781768766 224.7466778417794 50.86610238176877 C 224.7466778417794 54.73209598176877 221.61267144177938 57.86610238176877 217.7466778417794 57.86610238176877 C 213.8806842417794 57.86610238176877 210.7466778417794 54.73209598176877 210.7466778417794 50.86610238176877 Z" stroke-miterlimit="10"/></g><g transform="translate(-10,-10) scale(1,1)"><path fill="none" stroke="#000000" d="M 224.49335568355878 52.73220476353753 L 211 49" stroke-miterlimit="10"/></g><g transform="translate(-10,-10) scale(1,1)"><path fill="none" stroke="#000000" d="M 219.61278022354816 44.11942453998938 L 215.88057546001062 57.61278022354816" stroke-miterlimit="10"/></g><g transform="translate(-10,-10) scale(1,1)"><path fill="none" stroke="#000000" d="M 413 89 Q 413 75 413 60" stroke-miterlimit="10"/></g><g transform="translate(-10,-10) scale(1,1)"><path fill="#FFFFFF" stroke="none" d="M 406 67 C 406 63.1340064 409.1340064 60 413 60 C 416.8659936 60 420 63.1340064 420 67 C 420 70.8659936 416.8659936 74 413 74 C 409.1340064 74 406 70.8659936 406 67 Z"/></g><g transform="translate(-10,-10) scale(1,1)"><path fill="none" stroke="#000000" d="M 406 67 C 406 63.1340064 409.1340064 60 413 60 C 416.8659936 60 420 63.1340064 420 67 C 420 70.8659936 416.8659936 74 413 74 C 409.1340064 74 406 70.8659936 406 67 Z" stroke-miterlimit="10"/></g><g transform="translate(-10,-10) scale(1,1)"><path fill="none" stroke="#000000" d="M 413 74 L 413 60" stroke-miterlimit="10"/></g><g transform="translate(-10,-10) scale(1,1)"><path fill="none" stroke="#000000" d="M 420 67 L 406 67" stroke-miterlimit="10"/></g><g transform="translate(-10,-10) scale(1,1)"><path fill="none" stroke="#000000" d="M 413 159 Q 413 145 413 130" stroke-miterlimit="10"/></g><g transform="translate(-10,-10) scale(1,1)"><path fill="#FFFFFF" stroke="none" d="M 406 137 C 406 133.1340064 409.1340064 130 413 130 C 416.8659936 130 420 133.1340064 420 137 C 420 140.8659936 416.8659936 144 413 144 C 409.1340064 144 406 140.8659936 406 137 Z"/></g><g transform="translate(-10,-10) scale(1,1)"><path fill="none" stroke="#000000" d="M 406 137 C 406 133.1340064 409.1340064 130 413 130 C 416.8659936 130 420 133.1340064 420 137 C 420 140.8659936 416.8659936 144 413 144 C 409.1340064 144 406 140.8659936 406 137 Z" stroke-miterlimit="10"/></g><g transform="translate(-10,-10) scale(1,1)"><path fill="none" stroke="#000000" d="M 413 144 L 413 130" stroke-miterlimit="10"/></g><g transform="translate(-10,-10) scale(1,1)"><path fill="none" stroke="#000000" d="M 420 137 L 406 137" stroke-miterlimit="10"/></g><g transform="translate(-10,-10) scale(1,1)"><path fill="none" stroke="#000000" d="M 771 89 Q 771 75 771 60" stroke-miterlimit="10"/></g><g transform="translate(-10,-10) scale(1,1)"><path fill="#FFFFFF" stroke="none" d="M 764 67 C 764 63.1340064 767.1340064 60 771 60 C 774.8659936 60 778 63.1340064 778 67 C 778 70.8659936 774.8659936 74 771 74 C 767.1340064 74 764 70.8659936 764 67 Z"/></g><g transform="translate(-10,-10) scale(1,1)"><path fill="none" stroke="#000000" d="M 764 67 C 764 63.1340064 767.1340064 60 771 60 C 774.8659936 60 778 63.1340064 778 67 C 778 70.8659936 774.8659936 74 771 74 C 767.1340064 74 764 70.8659936 764 67 Z" stroke-miterlimit="10"/></g><g transform="translate(-10,-10) scale(1,1)"><path fill="none" stroke="#000000" d="M 771 74 L 771 60" stroke-miterlimit="10"/></g><g transform="translate(-10,-10) scale(1,1)"><path fill="none" stroke="#000000" d="M 778 67 L 764 67" stroke-miterlimit="10"/></g><g transform="translate(-10,-10) scale(1,1)"><path fill="none" stroke="#000000" d="M 931 89 Q 931 75 931 60" stroke-miterlimit="10"/></g><g transform="translate(-10,-10) scale(1,1)"><path fill="#FFFFFF" stroke="none" d="M 924 67 C 924 63.1340064 927.1340064 60 931 60 C 934.8659936 60 938 63.1340064 938 67 C 938 70.8659936 934.8659936 74 931 74 C 927.1340064 74 924 70.8659936 924 67 Z"/></g><g transform="translate(-10,-10) scale(1,1)"><path fill="none" stroke="#000000" d="M 924 67 C 924 63.1340064 927.1340064 60 931 60 C 934.8659936 60 938 63.1340064 938 67 C 938 70.8659936 934.8659936 74 931 74 C 927.1340064 74 924 70.8659936 924 67 Z" stroke-miterlimit="10"/></g><g transform="translate(-10,-10) scale(1,1)"><path fill="none" stroke="#000000" d="M 931 74 L 931 60" stroke-miterlimit="10"/></g><g transform="translate(-10,-10) scale(1,1)"><path fill="none" stroke="#000000" d="M 938 67 L 924 67" stroke-miterlimit="10"/></g><g transform="translate(-10,-10) scale(1,1)"><path fill="none" stroke="#000000" d="M 745 159 Q 745 145 879 119" stroke-miterlimit="10"/></g><g transform="translate(-10,-10) scale(1,1)"><path fill="#FFFFFF" stroke="none" d="M 865.1281590262581 120.33334227848724 C 865.1281590262581 116.46734867848724 868.2621654262581 113.33334227848724 872.1281590262581 113.33334227848724 C 875.9941526262581 113.33334227848724 879.1281590262581 116.46734867848724 879.1281590262581 120.33334227848724 C 879.1281590262581 124.19933587848723 875.9941526262581 127.33334227848724 872.1281590262581 127.33334227848724 C 868.2621654262581 127.33334227848724 865.1281590262581 124.19933587848723 865.1281590262581 120.33334227848724 Z"/></g><g transform="translate(-10,-10) scale(1,1)"><path fill="none" stroke="#000000" d="M 865.1281590262581 120.33334227848724 C 865.1281590262581 116.46734867848724 868.2621654262581 113.33334227848724 872.1281590262581 113.33334227848724 C 875.9941526262581 113.33334227848724 879.1281590262581 116.46734867848724 879.1281590262581 120.33334227848724 C 879.1281590262581 124.19933587848723 875.9941526262581 127.33334227848724 872.1281590262581 127.33334227848724 C 868.2621654262581 127.33334227848724 865.1281590262581 124.19933587848723 865.1281590262581 120.33334227848724 Z" stroke-miterlimit="10"/></g><g transform="translate(-10,-10) scale(1,1)"><path fill="none" stroke="#000000" d="M 865.2563180525161 121.66668455697449 L 879 119" stroke-miterlimit="10"/></g><g transform="translate(-10,-10) scale(1,1)"><path fill="none" stroke="#000000" d="M 873.4615013047454 127.20518325222916 L 870.7948167477708 113.46150130474531" stroke-miterlimit="10"/></g><g transform="translate(-10,-10) scale(1,1)"><path fill="none" stroke="#000000" d="M 993 159 Q 993 145 967 130" stroke-miterlimit="10"/></g><g transform="translate(-10,-10) scale(1,1)"><path fill="#FFFFFF" stroke="none" d="M 966.0632991023402 133.49805717442703 C 966.0632991023402 129.63206357442704 969.1973055023402 126.49805717442703 973.0632991023402 126.49805717442703 C 976.9292927023403 126.49805717442703 980.0632991023402 129.63206357442704 980.0632991023402 133.49805717442703 C 980.0632991023402 137.36405077442703 976.9292927023403 140.49805717442703 973.0632991023402 140.49805717442703 C 969.1973055023402 140.49805717442703 966.0632991023402 137.36405077442703 966.0632991023402 133.49805717442703 Z"/></g><g transform="translate(-10,-10) scale(1,1)"><path fill="none" stroke="#000000" d="M 966.0632991023402 133.49805717442703 C 966.0632991023402 129.63206357442704 969.1973055023402 126.49805717442703 973.0632991023402 126.49805717442703 C 976.9292927023403 126.49805717442703 980.0632991023402 129.63206357442704 980.0632991023402 133.49805717442703 C 980.0632991023402 137.36405077442703 976.9292927023403 140.49805717442703 973.0632991023402 140.49805717442703 C 969.1973055023402 140.49805717442703 966.0632991023402 137.36405077442703 966.0632991023402 133.49805717442703 Z" stroke-miterlimit="10"/></g><g transform="translate(-10,-10) scale(1,1)"><path fill="none" stroke="#000000" d="M 979.1265982046804 136.9961143488541 L 967 130" stroke-miterlimit="10"/></g><g transform="translate(-10,-10) scale(1,1)"><path fill="none" stroke="#000000" d="M 976.5613562767672 127.43475807208682 L 969.5652419279132 139.56135627676724" stroke-miterlimit="10"/></g></g></svg>